<svg width="1962" height="346" viewBox="0 0 1962 346" fill="none" xmlns="http://www.w3.org/2000/svg">
<path d="M66.2263 267H0.976943V27.4684H87.0107C145.616 27.4684 173.556 57.6228 173.556 105.836C173.556 134.287 160.608 153.708 142.72 166.145L215.124 267H134.713L79.6851 184.203H66.2263V267ZM66.2263 86.0735V125.768H85.8182C97.914 125.768 108.477 120.487 108.477 105.836C108.477 91.5252 99.6176 86.0735 85.8182 86.0735H66.2263ZM312.913 272.452C254.99 272.452 212.569 232.416 212.569 174.663C212.569 116.739 254.99 76.7035 312.913 76.7035C370.667 76.7035 413.258 116.739 413.258 174.663C413.258 232.416 370.667 272.452 312.913 272.452ZM312.913 215.039C334.89 215.039 352.097 198.343 352.097 174.663C352.097 150.812 334.89 133.946 312.913 133.946C290.936 133.946 273.73 150.812 273.73 174.663C273.73 198.343 290.936 215.039 312.913 215.039ZM506.958 267H445.627V82.1552H501.676V94.5917H503.891C513.602 84.3699 531.66 76.7035 550.06 76.7035C570.844 76.7035 586.858 83.6884 598.614 96.125C615.82 82.6663 633.027 76.7035 655.004 76.7035C698.787 76.7035 732.008 108.562 732.008 157.626V267H670.677V155.582C670.677 142.975 662.159 131.731 647.849 131.731C631.494 131.731 619.398 147.064 619.398 163.759V267H558.237V155.582C558.237 142.975 549.719 131.731 535.238 131.731C518.883 131.731 506.958 147.064 506.958 163.759V267ZM861.996 272.452C807.991 272.452 762.504 235.142 762.504 174.492C762.504 114.013 806.969 76.7035 860.974 76.7035C911.231 76.7035 954.163 110.095 954.163 174.322C954.163 178.07 953.652 189.144 952.8 192.551L826.049 192.381C827.583 209.587 844.449 221.683 863.018 221.683C882.099 221.683 893.173 214.017 899.987 202.943L949.734 224.068C934.912 254.393 898.454 272.452 861.996 272.452ZM825.879 154.901H892.491C890.106 136.842 877.158 125.598 860.804 125.598C844.278 125.598 828.605 136.842 825.879 154.901ZM1067.63 272.452C1015.49 272.452 974.777 231.905 974.777 174.663C974.777 117.42 1015.49 76.7035 1067.63 76.7035C1085.68 76.7035 1100.68 82.4959 1111.75 92.5474V7.70614H1173.08V267H1117.03V254.563H1114.82C1103.74 265.978 1087.9 272.452 1067.63 272.452ZM1074.95 216.232C1096.93 216.232 1113.96 201.24 1113.96 174.663C1113.96 148.086 1096.93 133.094 1074.95 133.094C1052.97 133.094 1036.11 148.086 1036.11 174.663C1036.11 201.24 1052.97 216.232 1074.95 216.232ZM1209.88 345.708V293.066C1238.5 292.895 1258.09 284.377 1264.74 264.956L1267.46 257.46L1195.06 82.1552H1264.23L1297.28 180.285L1328.28 82.1552H1396.09L1322.15 283.696C1306.31 326.457 1274.79 345.708 1209.88 345.708ZM1494.56 267H1433.23V133.435H1407.33V82.1552H1433.23V68.8668C1433.23 29.0016 1456.06 5.49141 1501.54 5.49141C1512.1 5.49141 1522.84 6.34323 1535.27 7.70614V58.9857H1509.04C1500.52 58.9857 1494.56 64.6077 1494.56 73.1259V82.1552H1535.27V133.435H1494.56V267ZM1620.63 267H1559.47V7.8765H1620.63V267ZM1695.42 68.5261C1674.29 68.5261 1659.13 55.408 1659.13 34.794C1659.13 14.0096 1674.29 0.891583 1695.42 0.891583C1716.71 0.891583 1731.87 14.0096 1731.87 34.794C1731.87 55.408 1716.71 68.5261 1695.42 68.5261ZM1726.08 267H1664.92V82.1552H1726.08V267ZM1819.1 267H1745.84L1809.73 166.145L1754.53 82.1552H1827.79L1853.68 126.109L1879.41 82.1552H1952.67L1897.47 166.145L1961.35 267H1888.1L1853.68 208.565L1819.1 267Z" fill="url(#paint0_linear_222_411)"/>
<defs>
<linearGradient id="paint0_linear_222_411" x1="969" y1="-66" x2="969" y2="346" gradientUnits="userSpaceOnUse">
<stop stop-color="#FB8500"/>
<stop offset="1" stop-color="#FBB500"/>
</linearGradient>
</defs>
</svg>
